# xmcd
#
# Track frame offsets:
#	150
#	18265
#	37622
#	53570
#	74275
#	90245
#	109467
#	129997
#	150660
#	161532
#	180790
#	199147
#	222815
#	240547
#	263432
#	274952
#
# Disc length: 3916 seconds
#
# Revision: 0
# Processed by: cddbd v1.5.2PL0 Copyright (c) Steve Scherf et al.
# Submitted via: EasyCDDAExtractor 12.1.0.1
#
DISCID=c20f4a10
DTITLE=Various Artist - 추억만들기 5
DYEAR=1900
DGENRE=
TTITLE0=이소라 - 그냥 이렇게
TTITLE1=박상민 - 애원
TTITLE2=김동환 - 묻어버린 아픔
TTITLE3=김현식 - 비처럼 음악처럼
TTITLE4=들국화 - 매일 그대와
TTITLE5=봄여름가을겨울 - 영원에 대하여
TTITLE6=양파 - 다시 우리
TTITLE7=최진영 - 사랑을 그대 품안에
TTITLE8=이승철 - 희야
TTITLE9=박정운 - 거짓없는 사랑
TTITLE10=권인하 - 비오는 날의 수채화
TTITLE11=박광현 - 비의 이별
TTITLE12=한영애 - 건널 수 없는 강
TTITLE13=이현우 - 슬픔속에 그댈 지워야만 해
TTITLE14=패닉 - 왼손잡이
TTITLE15=디제이덕 - 나의 성공담
EXTD=
EXTT0=
EXTT1=
EXTT2=
EXTT3=
EXTT4=
EXTT5=
EXTT6=
EXTT7=
EXTT8=
EXTT9=
EXTT10=
EXTT11=
EXTT12=
EXTT13=
EXTT14=
EXTT15=
PLAYORDER=
